<?xml version="1.0" standalone="no"?><!DOCTYPE svg PUBLIC "-//W3C//DTD SVG 1.1//EN" "http://www.w3.org/Graphics/SVG/1.1/DTD/svg11.dtd"><svg t="1738505821706" class="icon" viewBox="0 0 1024 1024" version="1.1" xmlns="http://www.w3.org/2000/svg" p-id="1369" xmlns:xlink="http://www.w3.org/1999/xlink" width="16" height="16"><path d="M597.333333 256a42.666667 42.666667 0 1 0 0 85.333333h256a42.666667 42.666667 0 1 0 0-85.333333h-256zM597.333333 682.666667a42.666667 42.666667 0 1 0 0 85.333333h256a42.666667 42.666667 0 1 0 0-85.333333h-256z" fill="#ffffff" p-id="1370"></path><path d="M300.032 128h-2.730667c-18.730667 0-34.858667 0-48.213333 0.896a130.986667 130.986667 0 0 0-42.069333 8.832 128 128 0 0 0-69.290667 69.290667 130.986667 130.986667 0 0 0-8.832 42.069333C128 262.4 128 278.570667 128 297.301333v2.730667c0 18.730667 0 34.858667 0.896 48.213333 0.981333 14.08 3.072 28.16 8.832 42.069334a128 128 0 0 0 69.290667 69.290666c13.909333 5.76 27.989333 7.850667 42.069333 8.832 13.354667 0.896 29.482667 0.896 48.213333 0.896h2.730667c18.730667 0 34.858667 0 48.213333-0.896 14.08-0.981333 28.16-3.072 42.069334-8.832a128 128 0 0 0 69.290666-69.290666c5.76-13.909333 7.850667-27.989333 8.832-42.069334C469.333333 334.933333 469.333333 318.762667 469.333333 300.032v-2.730667c0-18.730667 0-34.858667-0.896-48.213333a131.072 131.072 0 0 0-8.832-42.069333 128 128 0 0 0-69.290666-69.290667 130.986667 130.986667 0 0 0-42.069334-8.832C334.933333 128 318.762667 128 300.032 128zM239.658667 216.576c1.792-0.725333 5.504-1.877333 15.232-2.56C264.96 213.418667 278.186667 213.333333 298.666667 213.333333s33.706667 0 43.776 0.725334c9.728 0.64 13.44 1.792 15.232 2.56a42.666667 42.666667 0 0 1 23.04 23.04c0.768 1.792 1.92 5.504 2.56 15.232C384 264.96 384 278.186667 384 298.666667s0 33.706667-0.725333 43.776c-0.64 9.728-1.792 13.44-2.56 15.232a42.666667 42.666667 0 0 1-23.04 23.04c-1.792 0.768-5.504 1.92-15.232 2.56A721.493333 721.493333 0 0 1 298.666667 384c-20.48 0-33.706667 0-43.776-0.725333-9.728-0.64-13.44-1.792-15.232-2.56a42.666667 42.666667 0 0 1-23.04-23.04c-0.768-1.792-1.92-5.504-2.56-15.232A721.493333 721.493333 0 0 1 213.333333 298.666667c0-20.48 0-33.706667 0.725334-43.776 0.64-9.728 1.792-13.44 2.56-15.232a42.666667 42.666667 0 0 1 23.04-23.04zM300.032 554.666667h-2.730667c-18.730667 0-34.858667 0-48.213333 0.896a130.986667 130.986667 0 0 0-42.069333 8.832 128 128 0 0 0-69.290667 69.290666 130.944 130.944 0 0 0-8.832 42.069334C128 689.066667 128 705.237333 128 723.968v2.730667c0 18.730667 0 34.858667 0.896 48.213333 0.981333 14.08 3.072 28.16 8.832 42.069333a128 128 0 0 0 69.290667 69.290667c13.909333 5.76 27.989333 7.850667 42.069333 8.832 13.354667 0.896 29.482667 0.896 48.213333 0.896h2.730667c18.730667 0 34.858667 0 48.213333-0.896 14.08-0.981333 28.16-3.072 42.069334-8.832a128 128 0 0 0 69.290666-69.290667c5.76-13.909333 7.850667-27.989333 8.832-42.069333 0.896-13.354667 0.896-29.482667 0.896-48.213333v-2.730667c0-18.730667 0-34.858667-0.896-48.213333a131.072 131.072 0 0 0-8.832-42.069334 128 128 0 0 0-69.290666-69.290666 130.986667 130.986667 0 0 0-42.069334-8.832C334.933333 554.666667 318.762667 554.666667 300.032 554.666667z m-60.373333 88.576c1.792-0.725333 5.504-1.877333 15.232-2.56C264.96 640.085333 278.186667 640 298.666667 640s33.706667 0 43.776 0.725333c9.728 0.64 13.44 1.792 15.232 2.56a42.666667 42.666667 0 0 1 23.04 23.04c0.768 1.792 1.92 5.504 2.56 15.232C384 691.626667 384 704.853333 384 725.333333s0 33.706667-0.725333 43.776c-0.64 9.728-1.792 13.44-2.56 15.232a42.666667 42.666667 0 0 1-23.04 23.04c-1.792 0.768-5.504 1.92-15.232 2.56C332.373333 810.666667 319.146667 810.666667 298.666667 810.666667s-33.706667 0-43.776-0.725334c-9.728-0.64-13.44-1.792-15.232-2.56a42.666667 42.666667 0 0 1-23.04-23.04c-0.768-1.792-1.92-5.504-2.56-15.232A721.408 721.408 0 0 1 213.333333 725.333333c0-20.48 0-33.706667 0.725334-43.776 0.64-9.728 1.792-13.44 2.56-15.232a42.666667 42.666667 0 0 1 23.04-23.04z" fill="#ffffff" p-id="1371"></path></svg>