<?xml version="1.0" standalone="no"?><!DOCTYPE svg PUBLIC "-//W3C//DTD SVG 1.1//EN" "http://www.w3.org/Graphics/SVG/1.1/DTD/svg11.dtd"><svg t="1738506334430" class="icon" viewBox="0 0 1024 1024" version="1.1" xmlns="http://www.w3.org/2000/svg" p-id="1989" xmlns:xlink="http://www.w3.org/1999/xlink" width="16" height="16"><path d="M597.333333 256c140.8 0 256 115.2 256 256s-115.2 256-256 256H341.333333c-93.866667 0-170.666667-76.8-170.666666-170.666667 0-85.333333 59.733333-153.6 140.8-166.4l38.4-8.533333 21.333333-34.133333C418.133333 307.2 503.466667 256 597.333333 256m0-85.333333c-128 0-238.933333 68.266667-298.666666 174.933333-119.466667 17.066667-213.333333 123.733333-213.333334 251.733333 0 140.8 115.2 256 256 256h256c187.733333 0 341.333333-153.6 341.333334-341.333333s-153.6-341.333333-341.333334-341.333333z" fill="#ffffff" p-id="1990"></path></svg>