<?xml version="1.0" standalone="no"?><!DOCTYPE svg PUBLIC "-//W3C//DTD SVG 1.1//EN" "http://www.w3.org/Graphics/SVG/1.1/DTD/svg11.dtd"><svg t="1739178168822" class="icon" viewBox="0 0 1024 1024" version="1.1" xmlns="http://www.w3.org/2000/svg" p-id="1493" width="16" height="16" xmlns:xlink="http://www.w3.org/1999/xlink"><path d="M536.512 516c47.296-39.584 77.44-98.944 77.44-165.28 0-118.848-96.672-215.552-215.552-215.552-118.848 0-215.552 96.704-215.552 215.552 0 66.336 30.144 125.696 77.44 165.28-118.24 52.992-200.928 171.584-200.928 309.344 0 8.992 0.64 17.856 1.312 26.656l2.88 36.864 632.736 0 37.344-2.016 2.688-37.088c0.608-8.064 1.152-16.192 1.152-24.416C737.44 687.584 654.752 568.992 536.512 516zM398.368 215.168c74.752 0 135.552 60.8 135.552 135.552s-60.8 135.552-135.552 135.552-135.552-60.8-135.552-135.552S323.616 215.168 398.368 215.168zM139.84 808.864c8.512-135.232 121.248-242.592 258.56-242.592s250.016 107.36 258.528 242.592L139.84 808.864z" p-id="1494" fill="#ffffff"></path><path d="M687.008 377.312l237.696 0c22.08 0 40-17.92 40-40s-17.92-40-40-40l-237.696 0c-22.08 0-40 17.92-40 40S664.896 377.312 687.008 377.312z" p-id="1495" fill="#ffffff"></path><path d="M924.672 452.576l-237.696 0c-22.08 0-40 17.92-40 40s17.92 40 40 40l237.696 0c22.08 0 40-17.92 40-40S946.784 452.576 924.672 452.576z" p-id="1496" fill="#ffffff"></path><path d="M924.672 607.808l-154.88 0c-22.08 0-40 17.92-40 40s17.92 40 40 40l154.88 0c22.08 0 40-17.92 40-40S946.784 607.808 924.672 607.808z" p-id="1497" fill="#ffffff"></path></svg>