<?xml version="1.0" standalone="no"?><!DOCTYPE svg PUBLIC "-//W3C//DTD SVG 1.1//EN" "http://www.w3.org/Graphics/SVG/1.1/DTD/svg11.dtd"><svg t="1738566101293" class="icon" viewBox="0 0 1024 1024" version="1.1" xmlns="http://www.w3.org/2000/svg" p-id="2937" xmlns:xlink="http://www.w3.org/1999/xlink" width="16" height="16"><path d="M879.616 511.146667l126.065778 126.065777a59.448889 59.448889 0 0 1-84.024889 84.081778l-126.122667-126.122666-126.122666 126.122666a59.448889 59.448889 0 0 1-84.081778-84.081778l126.122666-126.065777-126.122666-126.065778a59.562667 59.562667 0 0 1 0-84.081778 59.392 59.392 0 0 1 84.081778 0l126.122666 126.065778 126.122667-126.065778a59.448889 59.448889 0 0 1 84.024889 84.081778l-126.065778 126.065778z m-476.558222 442.368l-208.042667-196.266667H64.967111C29.070222 757.248 0 720.384 0 676.238222V347.648c0-44.771556 28.785778-81.009778 64.967111-81.009778h130.048l208.042667-196.266666C431.786667 43.235556 455.111111 58.481778 455.111111 103.139556v817.493333c0 45.112889-23.096889 60.131556-52.053333 32.824889z" fill="#ffffff" p-id="2938"></path></svg>