<?xml version="1.0" standalone="no"?><!DOCTYPE svg PUBLIC "-//W3C//DTD SVG 1.1//EN" "http://www.w3.org/Graphics/SVG/1.1/DTD/svg11.dtd"><svg t="1738566097021" class="icon" viewBox="0 0 1024 1024" version="1.1" xmlns="http://www.w3.org/2000/svg" p-id="2730" xmlns:xlink="http://www.w3.org/1999/xlink" width="16" height="16"><path d="M426.666667 45.511111L204.8 256H68.266667C28.444444 256 0 290.133333 0 341.333333v341.333334c0 45.511111 28.444444 85.333333 68.266667 85.333333h136.533333l221.866667 204.8c28.444444 28.444444 56.888889 11.377778 56.888889-34.133333V79.644444c0-45.511111-28.444444-62.577778-56.888889-34.133333zM870.4 51.2c-22.755556-28.444444-62.577778-28.444444-85.333333 0-22.755556 28.444444-22.755556 73.955556 0 102.4 159.288889 199.111111 159.288889 517.688889 0 716.8-22.755556 28.444444-22.755556 73.955556 0 102.4s62.577778 28.444444 85.333333 0c204.8-256 204.8-671.288889 0-921.6z" fill="#ffffff" p-id="2731"></path><path d="M699.733333 256c-22.755556-28.444444-62.577778-28.444444-85.333333 0-22.755556 28.444444-22.755556 73.955556 0 102.4 68.266667 85.333333 68.266667 221.866667 0 307.2-22.755556 28.444444-22.755556 73.955556 0 102.4s62.577778 28.444444 85.333333 0c119.466667-142.222222 119.466667-369.777778 0-512z" fill="#ffffff" p-id="2732"></path></svg>